G75*
%MOIN*%
%OFA0B0*%
%FSLAX24Y24*%
%IPPOS*%
%LPD*%
%AMOC8*
5,1,8,0,0,1.08239X$1,22.5*
%
%ADD10C,0.0040*%
%ADD11C,0.0030*%
%ADD12C,0.0100*%
%ADD13C,0.0160*%
%ADD14C,0.0060*%
%ADD15C,0.0050*%
%ADD16C,0.0020*%
%ADD17C,0.0039*%
%ADD18R,0.0200X0.0200*%
%ADD19R,0.0256X0.0551*%
%ADD20R,0.0197X0.0512*%
%ADD21R,0.0551X0.0256*%
D10*
X001620Y002320D02*
X001927Y002320D01*
X001773Y002320D02*
X001773Y002780D01*
X001620Y002627D01*
X002097Y003370D02*
X002173Y003370D01*
X002250Y003447D01*
X002250Y003830D01*
X002173Y003830D02*
X002327Y003830D01*
X002480Y003754D02*
X002557Y003830D01*
X002711Y003830D01*
X002787Y003754D01*
X002787Y003677D01*
X002480Y003370D01*
X002787Y003370D01*
X002097Y003370D02*
X002020Y003447D01*
X003936Y003314D02*
X004664Y003314D01*
X005520Y003030D02*
X005750Y003030D01*
X005827Y002954D01*
X005827Y002800D01*
X005750Y002723D01*
X005520Y002723D01*
X005520Y002570D02*
X005520Y003030D01*
X005980Y002954D02*
X006057Y003030D01*
X006211Y003030D01*
X006287Y002954D01*
X006287Y002877D01*
X005980Y002570D01*
X006287Y002570D01*
X005827Y002570D02*
X005673Y002723D01*
X004664Y003786D02*
X003936Y003786D01*
X003997Y004370D02*
X004150Y004370D01*
X004227Y004447D01*
X004380Y004370D02*
X004687Y004370D01*
X004534Y004370D02*
X004534Y004830D01*
X004380Y004677D01*
X004227Y004754D02*
X004150Y004830D01*
X003997Y004830D01*
X003920Y004754D01*
X003920Y004447D01*
X003997Y004370D01*
X005620Y005270D02*
X005620Y005730D01*
X005850Y005730D01*
X005927Y005654D01*
X005927Y005500D01*
X005850Y005423D01*
X005620Y005423D01*
X005773Y005423D02*
X005927Y005270D01*
X006080Y005270D02*
X006387Y005270D01*
X006234Y005270D02*
X006234Y005730D01*
X006080Y005577D01*
X002487Y005370D02*
X002180Y005370D01*
X002334Y005370D02*
X002334Y005830D01*
X002180Y005677D01*
X002027Y005830D02*
X001873Y005830D01*
X001950Y005830D02*
X001950Y005447D01*
X001873Y005370D01*
X001797Y005370D01*
X001720Y005447D01*
X004220Y009570D02*
X004220Y010030D01*
X004450Y010030D01*
X004527Y009954D01*
X004527Y009800D01*
X004450Y009723D01*
X004220Y009723D01*
X004373Y009723D02*
X004527Y009570D01*
X004680Y009800D02*
X004987Y009800D01*
X004911Y010030D02*
X004680Y009800D01*
X004911Y009570D02*
X004911Y010030D01*
X005320Y010030D02*
X005550Y010030D01*
X005627Y009954D01*
X005627Y009800D01*
X005550Y009723D01*
X005320Y009723D01*
X005320Y009570D02*
X005320Y010030D01*
X005780Y009954D02*
X005857Y010030D01*
X006011Y010030D01*
X006087Y009954D01*
X006087Y009877D01*
X006011Y009800D01*
X006087Y009723D01*
X006087Y009647D01*
X006011Y009570D01*
X005857Y009570D01*
X005780Y009647D01*
X005627Y009570D02*
X005473Y009723D01*
X005934Y009800D02*
X006011Y009800D01*
X009820Y009647D02*
X009897Y009570D01*
X010050Y009570D01*
X010127Y009647D01*
X010280Y009570D02*
X010587Y009877D01*
X010587Y009954D01*
X010511Y010030D01*
X010357Y010030D01*
X010280Y009954D01*
X010127Y009954D02*
X010050Y010030D01*
X009897Y010030D01*
X009820Y009954D01*
X009820Y009647D01*
X010280Y009570D02*
X010587Y009570D01*
X011286Y009514D02*
X012014Y009514D01*
X012014Y009986D02*
X011286Y009986D01*
X013720Y010047D02*
X013797Y009970D01*
X013873Y009970D01*
X013950Y010047D01*
X013950Y010430D01*
X013873Y010430D02*
X014027Y010430D01*
X014180Y010354D02*
X014257Y010430D01*
X014411Y010430D01*
X014487Y010354D01*
X014487Y010277D01*
X014411Y010200D01*
X014487Y010123D01*
X014487Y010047D01*
X014411Y009970D01*
X014257Y009970D01*
X014180Y010047D01*
X014334Y010200D02*
X014411Y010200D01*
X015720Y006430D02*
X015950Y006430D01*
X016027Y006354D01*
X016027Y006200D01*
X015950Y006123D01*
X015720Y006123D01*
X015720Y005970D02*
X015720Y006430D01*
X016180Y006430D02*
X016180Y006200D01*
X016334Y006277D01*
X016411Y006277D01*
X016487Y006200D01*
X016487Y006047D01*
X016411Y005970D01*
X016257Y005970D01*
X016180Y006047D01*
X016027Y005970D02*
X015873Y006123D01*
X016180Y006430D02*
X016487Y006430D01*
X016720Y006430D02*
X016950Y006430D01*
X017027Y006354D01*
X017027Y006200D01*
X016950Y006123D01*
X016720Y006123D01*
X016720Y005970D02*
X016720Y006430D01*
X017180Y006200D02*
X017411Y006200D01*
X017487Y006123D01*
X017487Y006047D01*
X017411Y005970D01*
X017257Y005970D01*
X017180Y006047D01*
X017180Y006200D01*
X017334Y006354D01*
X017487Y006430D01*
X017027Y005970D02*
X016873Y006123D01*
X017120Y005230D02*
X017427Y005230D01*
X017580Y005230D02*
X017811Y005230D01*
X017887Y005154D01*
X017887Y005000D01*
X017811Y004923D01*
X017580Y004923D01*
X017580Y004770D02*
X017580Y005230D01*
X017273Y005230D02*
X017273Y004770D01*
X018041Y004770D02*
X018348Y004770D01*
X018194Y004770D02*
X018194Y005230D01*
X018041Y005077D01*
X018089Y003980D02*
X018089Y003520D01*
X018242Y003520D02*
X017935Y003520D01*
X017782Y003520D02*
X017705Y003520D01*
X017705Y003597D01*
X017782Y003597D01*
X017782Y003520D01*
X017552Y003597D02*
X017475Y003520D01*
X017321Y003520D01*
X017245Y003597D01*
X017245Y003904D01*
X017321Y003980D01*
X017475Y003980D01*
X017552Y003904D01*
X017935Y003827D02*
X018089Y003980D01*
X016631Y003827D02*
X016477Y003520D01*
X016324Y003827D01*
X016170Y003750D02*
X016170Y003673D01*
X015864Y003673D01*
X015864Y003597D02*
X015864Y003750D01*
X015940Y003827D01*
X016094Y003827D01*
X016170Y003750D01*
X016094Y003520D02*
X015940Y003520D01*
X015864Y003597D01*
X015710Y003520D02*
X015557Y003673D01*
X015633Y003673D02*
X015403Y003673D01*
X015403Y003520D02*
X015403Y003980D01*
X015633Y003980D01*
X015710Y003904D01*
X015710Y003750D01*
X015633Y003673D01*
X014789Y003520D02*
X014789Y003980D01*
X014789Y003827D02*
X014559Y003827D01*
X014482Y003750D01*
X014482Y003597D01*
X014559Y003520D01*
X014789Y003520D01*
X014329Y003597D02*
X014329Y003750D01*
X014252Y003827D01*
X014099Y003827D01*
X014022Y003750D01*
X014022Y003597D01*
X014099Y003520D01*
X014252Y003520D01*
X014329Y003597D01*
X013868Y003520D02*
X013868Y003980D01*
X013715Y003827D01*
X013562Y003980D01*
X013562Y003520D01*
X013408Y003520D02*
X013255Y003520D01*
X013331Y003520D02*
X013331Y003827D01*
X013255Y003827D01*
X013101Y003827D02*
X012948Y003827D01*
X013024Y003904D02*
X013024Y003597D01*
X013101Y003520D01*
X012794Y003520D02*
X012641Y003520D01*
X012718Y003520D02*
X012718Y003980D01*
X012641Y003980D01*
X012487Y003827D02*
X012487Y003520D01*
X012257Y003520D01*
X012180Y003597D01*
X012180Y003827D01*
X012027Y003980D02*
X011873Y003827D01*
X011720Y003980D01*
X011720Y003520D01*
X012027Y003520D02*
X012027Y003980D01*
X013331Y003980D02*
X013331Y004057D01*
D11*
X017855Y007250D02*
X017855Y008723D01*
X017976Y008617D02*
X018100Y008617D01*
X018162Y008555D01*
X018162Y008370D01*
X018285Y008370D02*
X017915Y008370D01*
X017915Y008555D01*
X017976Y008617D01*
X018162Y008493D02*
X018285Y008617D01*
X018285Y008249D02*
X018285Y008002D01*
X017915Y008002D01*
X017976Y007880D02*
X017915Y007818D01*
X017915Y007695D01*
X017976Y007633D01*
X018223Y007633D01*
X018285Y007695D01*
X018285Y007818D01*
X018223Y007880D01*
X018285Y007512D02*
X017915Y007512D01*
X018038Y007388D01*
X017915Y007265D01*
X018285Y007265D01*
X017430Y008365D02*
X017183Y008612D01*
X017062Y008674D02*
X017062Y008550D01*
X017000Y008488D01*
X016815Y008488D01*
X016815Y008365D02*
X016815Y008735D01*
X017000Y008735D01*
X017062Y008674D01*
X016938Y008488D02*
X017062Y008365D01*
X017183Y008365D02*
X017430Y008612D01*
X016430Y008612D02*
X016183Y008365D01*
X015938Y008365D02*
X015938Y008735D01*
X015815Y008735D02*
X016062Y008735D01*
X016183Y008612D02*
X016430Y008365D01*
X015185Y008280D02*
X015000Y008280D01*
X014938Y008218D01*
X014938Y008033D01*
X015185Y008033D01*
X015123Y007912D02*
X015000Y007912D01*
X015000Y007788D01*
X015123Y007665D02*
X014876Y007665D01*
X014815Y007727D01*
X014815Y007850D01*
X014876Y007912D01*
X015123Y007912D02*
X015185Y007850D01*
X015185Y007727D01*
X015123Y007665D01*
X015123Y008402D02*
X015000Y008402D01*
X014938Y008463D01*
X014938Y008649D01*
X014815Y008649D02*
X015185Y008649D01*
X015185Y008463D01*
X015123Y008402D01*
D12*
X001300Y005250D02*
X000900Y005850D01*
X000400Y005250D01*
X001300Y005250D01*
D13*
X006859Y005350D02*
X006861Y005373D01*
X006867Y005396D01*
X006876Y005417D01*
X006889Y005437D01*
X006905Y005454D01*
X006923Y005468D01*
X006943Y005479D01*
X006965Y005487D01*
X006988Y005491D01*
X007012Y005491D01*
X007035Y005487D01*
X007057Y005479D01*
X007077Y005468D01*
X007095Y005454D01*
X007111Y005437D01*
X007124Y005417D01*
X007133Y005396D01*
X007139Y005373D01*
X007141Y005350D01*
X007139Y005327D01*
X007133Y005304D01*
X007124Y005283D01*
X007111Y005263D01*
X007095Y005246D01*
X007077Y005232D01*
X007057Y005221D01*
X007035Y005213D01*
X007012Y005209D01*
X006988Y005209D01*
X006965Y005213D01*
X006943Y005221D01*
X006923Y005232D01*
X006905Y005246D01*
X006889Y005263D01*
X006876Y005283D01*
X006867Y005304D01*
X006861Y005327D01*
X006859Y005350D01*
D14*
X006261Y005000D02*
X005939Y005000D01*
X005939Y004500D02*
X006261Y004500D01*
X006261Y003800D02*
X005939Y003800D01*
X005939Y003300D02*
X006261Y003300D01*
X003400Y004100D02*
X003400Y004600D01*
X003150Y004850D01*
X002650Y004850D01*
X002400Y004600D01*
X002150Y004850D01*
X001650Y004850D01*
X001400Y004600D01*
X001400Y004100D01*
X001650Y003850D01*
X002150Y003850D01*
X002400Y004100D01*
X002400Y004600D01*
X002400Y004100D02*
X002650Y003850D01*
X003150Y003850D01*
X003400Y004100D01*
X003150Y005850D02*
X002650Y005850D01*
X002400Y006100D01*
X002150Y005850D01*
X001650Y005850D01*
X001400Y006100D01*
X001150Y005850D01*
X000650Y005850D01*
X000400Y006100D01*
X000400Y006600D01*
X000650Y006850D01*
X001150Y006850D01*
X001400Y006600D01*
X001650Y006850D01*
X002150Y006850D01*
X002400Y006600D01*
X002400Y006100D01*
X003150Y005850D02*
X003400Y006100D01*
X003650Y005850D01*
X004150Y005850D01*
X004400Y006100D01*
X004650Y005850D01*
X005150Y005850D01*
X005400Y006100D01*
X005650Y005850D01*
X006150Y005850D01*
X006400Y006100D01*
X006400Y006600D01*
X006150Y006850D01*
X005650Y006850D01*
X005400Y006600D01*
X005400Y006100D01*
X005400Y006600D02*
X005150Y006850D01*
X004650Y006850D01*
X004400Y006600D01*
X004400Y006100D01*
X003400Y006100D02*
X003400Y006600D01*
X003650Y006850D01*
X004150Y006850D01*
X004400Y006600D01*
X003400Y006600D02*
X003150Y006850D01*
X002650Y006850D01*
X002400Y006600D01*
X001400Y006600D02*
X001400Y006100D01*
X004350Y007989D02*
X004350Y008311D01*
X004850Y008311D02*
X004850Y007989D01*
X005450Y007989D02*
X005450Y008311D01*
X005950Y008311D02*
X005950Y007989D01*
X008229Y007168D02*
X008870Y007168D01*
X008870Y007381D02*
X008870Y006954D01*
X008763Y006737D02*
X008870Y006630D01*
X008870Y006416D01*
X008763Y006310D01*
X008336Y006310D01*
X008229Y006416D01*
X008229Y006630D01*
X008336Y006737D01*
X008443Y006954D02*
X008229Y007168D01*
X008229Y006094D02*
X008229Y005880D01*
X008229Y005987D02*
X008870Y005987D01*
X008870Y005880D02*
X008870Y006094D01*
X014600Y009300D02*
X014850Y009050D01*
X015350Y009050D01*
X015600Y009300D01*
X015600Y009800D01*
X015350Y010050D01*
X014850Y010050D01*
X014600Y009800D01*
X014600Y009300D01*
X015600Y009300D02*
X015850Y009050D01*
X016350Y009050D01*
X016600Y009300D01*
X016600Y009800D01*
X016850Y010050D01*
X017350Y010050D01*
X017600Y009800D01*
X017850Y010050D01*
X018350Y010050D01*
X018600Y009800D01*
X018600Y009300D01*
X018350Y009050D01*
X017850Y009050D01*
X017600Y009300D01*
X017350Y009050D01*
X016850Y009050D01*
X016600Y009300D01*
X017600Y009300D02*
X017600Y009800D01*
X016600Y009800D02*
X016350Y010050D01*
X015850Y010050D01*
X015600Y009800D01*
X015850Y007511D02*
X015850Y007189D01*
X016350Y007189D02*
X016350Y007511D01*
X016850Y007511D02*
X016850Y007189D01*
X017350Y007189D02*
X017350Y007511D01*
X016650Y005450D02*
X016150Y005450D01*
X015900Y005200D01*
X015900Y004700D01*
X016150Y004450D01*
X016650Y004450D01*
X016900Y004700D01*
X016900Y005200D01*
X016650Y005450D01*
D15*
X002100Y002300D02*
X002100Y000300D01*
X019100Y000300D01*
X019100Y002300D01*
X002100Y002300D01*
D16*
X007178Y004347D02*
X014422Y004347D01*
X014422Y008953D01*
X007178Y008953D01*
X007178Y004347D01*
D17*
X007276Y005174D02*
X014324Y005174D01*
X014324Y008126D01*
X007276Y008126D01*
X007276Y005174D01*
X007776Y005174D02*
X007276Y005674D01*
D18*
X005900Y006350D03*
X004900Y006350D03*
X003900Y006350D03*
X002900Y006350D03*
X001900Y006350D03*
X000900Y006350D03*
X001900Y004350D03*
X002900Y004350D03*
X015100Y009550D03*
X016100Y009550D03*
X017100Y009550D03*
X018100Y009550D03*
X016400Y004950D03*
D19*
X006388Y004751D03*
X005808Y004751D03*
X005808Y003551D03*
X006388Y003551D03*
D20*
X004595Y003550D03*
X004005Y003550D03*
X011355Y009750D03*
X011945Y009750D03*
D21*
X016101Y007642D03*
X017101Y007642D03*
X017101Y007062D03*
X016101Y007062D03*
X005699Y007858D03*
X004599Y007858D03*
X004599Y008438D03*
X005699Y008438D03*
M02*
