%
M48
M72
T01C0.0197
T02C0.0400
T03C0.0870
%
T01
X10050Y5850
X11050Y6250
X10550Y6750
X9550Y6450
X7600Y7150
X6500Y7250
X11550Y7650
T02
X15100Y9550
X16100Y9550
X17100Y9550
X18100Y9550
X16400Y4950
X5900Y6350
X4900Y6350
X3900Y6350
X2900Y6350
X1900Y6350
X900Y6350
X1900Y4350
X2900Y4350
T03
X3100Y1300
X4600Y1300
X6100Y1300
X7600Y1300
X9100Y1300
X10600Y1300
X12100Y1300
X13600Y1300
X15100Y1300
X16600Y1300
X18100Y1300
M30
