G75*
%MOIN*%
%OFA0B0*%
%FSLAX24Y24*%
%IPPOS*%
%LPD*%
%AMOC8*
5,1,8,0,0,1.08239X$1,22.5*
%
%ADD10C,0.1350*%
%ADD11C,0.0680*%
%ADD12OC8,0.0680*%
%ADD13C,0.0437*%
D10*
X003100Y001300D03*
X004600Y001300D03*
X006100Y001300D03*
X007600Y001300D03*
X009100Y001300D03*
X010600Y001300D03*
X012100Y001300D03*
X013600Y001300D03*
X015100Y001300D03*
X016600Y001300D03*
X018100Y001300D03*
D11*
X005900Y006050D02*
X005900Y006650D01*
X004900Y006650D02*
X004900Y006050D01*
X003900Y006050D02*
X003900Y006650D01*
X002900Y006650D02*
X002900Y006050D01*
X001900Y006050D02*
X001900Y006650D01*
X000900Y006650D02*
X000900Y006050D01*
X001900Y004650D02*
X001900Y004050D01*
X002900Y004050D02*
X002900Y004650D01*
X015100Y009250D02*
X015100Y009850D01*
X016100Y009850D02*
X016100Y009250D01*
X017100Y009250D02*
X017100Y009850D01*
X018100Y009850D02*
X018100Y009250D01*
D12*
X016400Y004950D03*
D13*
X011050Y006250D03*
X010550Y006750D03*
X009550Y006450D03*
X010050Y005850D03*
X007600Y007150D03*
X006500Y007250D03*
X011550Y007650D03*
M02*
