G75*
%MOIN*%
%OFA0B0*%
%FSLAX24Y24*%
%IPPOS*%
%LPD*%
%AMOC8*
5,1,8,0,0,1.08239X$1,22.5*
%
%ADD10C,0.0000*%
%ADD11C,0.1270*%
%ADD12R,0.0256X0.0728*%
%ADD13C,0.0600*%
%ADD14R,0.0512X0.0591*%
%ADD15R,0.0512X0.0630*%
%ADD16R,0.0591X0.0512*%
%ADD17OC8,0.0600*%
%ADD18C,0.0160*%
%ADD19C,0.0100*%
%ADD20C,0.0357*%
D10*
X001600Y000550D02*
X001600Y002550D01*
X000100Y002550D01*
X000100Y007550D01*
X003100Y007550D01*
X003100Y010850D01*
X019000Y010850D01*
X019000Y000550D01*
X001600Y000550D01*
D11*
X003100Y001300D03*
X004600Y001300D03*
X006100Y001300D03*
X007600Y001300D03*
X009100Y001300D03*
X010600Y001300D03*
X012100Y001300D03*
X013600Y001300D03*
X015100Y001300D03*
X016600Y001300D03*
X018100Y001300D03*
D12*
X014050Y004809D03*
X013550Y004809D03*
X013050Y004809D03*
X012550Y004809D03*
X012050Y004809D03*
X011550Y004809D03*
X011050Y004809D03*
X010550Y004809D03*
X010050Y004809D03*
X009550Y004809D03*
X009050Y004809D03*
X008550Y004809D03*
X008050Y004809D03*
X007550Y004809D03*
X007550Y008491D03*
X008050Y008491D03*
X008550Y008491D03*
X009050Y008491D03*
X009550Y008491D03*
X010050Y008491D03*
X010550Y008491D03*
X011050Y008491D03*
X011550Y008491D03*
X012050Y008491D03*
X012550Y008491D03*
X013050Y008491D03*
X013550Y008491D03*
X014050Y008491D03*
D13*
X015100Y009250D02*
X015100Y009850D01*
X016100Y009850D02*
X016100Y009250D01*
X017100Y009250D02*
X017100Y009850D01*
X018100Y009850D02*
X018100Y009250D01*
X005900Y006650D02*
X005900Y006050D01*
X004900Y006050D02*
X004900Y006650D01*
X003900Y006650D02*
X003900Y006050D01*
X002900Y006050D02*
X002900Y006650D01*
X001900Y006650D02*
X001900Y006050D01*
X000900Y006050D02*
X000900Y006650D01*
X001900Y004650D02*
X001900Y004050D01*
X002900Y004050D02*
X002900Y004650D01*
D14*
X005726Y004750D03*
X006474Y004750D03*
X006474Y003550D03*
X005726Y003550D03*
D15*
X004694Y003550D03*
X003906Y003550D03*
X011256Y009750D03*
X012044Y009750D03*
D16*
X016100Y007724D03*
X017100Y007724D03*
X017100Y006976D03*
X016100Y006976D03*
X005700Y007776D03*
X004600Y007776D03*
X004600Y008524D03*
X005700Y008524D03*
D17*
X016400Y004950D03*
D18*
X016800Y003250D02*
X011050Y003250D01*
X011050Y004809D01*
X011050Y005750D01*
X012050Y006450D01*
X012050Y008491D01*
X012050Y009200D01*
X012044Y009750D01*
X012044Y010350D01*
X004000Y010350D01*
X004000Y007450D01*
X002900Y007050D01*
X002900Y006350D01*
X002900Y005650D01*
X003900Y005450D01*
X003900Y003856D01*
X006474Y004750D02*
X006500Y005150D01*
X006500Y007250D01*
X011300Y009500D02*
X011550Y009150D01*
X011550Y008491D01*
X011550Y007650D01*
X015100Y009550D02*
X015100Y009750D01*
X012044Y009750D01*
X016800Y003250D02*
X018100Y001300D01*
D19*
X016600Y001300D02*
X015800Y002850D01*
X010050Y002850D01*
X010050Y004809D01*
X009550Y004809D02*
X009550Y002550D01*
X014500Y002550D01*
X015100Y001300D01*
X016400Y003850D02*
X012050Y003850D01*
X012050Y004809D01*
X010050Y005850D02*
X010050Y008491D01*
X009550Y008491D02*
X009550Y006450D01*
X010550Y006750D02*
X010550Y008491D01*
X011050Y008491D02*
X011050Y006250D01*
X012550Y006150D02*
X012550Y008491D01*
X013050Y008491D02*
X013050Y006976D01*
X016100Y006976D01*
X017100Y006976D02*
X017100Y006150D01*
X012550Y006150D01*
X009050Y004809D02*
X009050Y002550D01*
X008400Y002550D01*
X007600Y001300D01*
X007350Y002450D02*
X006100Y001300D01*
X006300Y002550D02*
X004600Y001300D01*
X006300Y002550D02*
X008050Y003850D01*
X008050Y004809D01*
X007550Y004809D02*
X007550Y007150D01*
X007600Y007150D01*
X008050Y007550D02*
X007000Y007550D01*
X007000Y008524D01*
X005700Y008524D01*
X004600Y008524D02*
X004600Y009350D01*
X007500Y009350D01*
X007500Y008491D01*
X007550Y008491D01*
X008050Y008491D02*
X008050Y007550D01*
X005700Y007776D02*
X004900Y006350D01*
X004600Y007250D02*
X003900Y006350D01*
X004600Y007250D02*
X004600Y007776D01*
X000900Y006350D02*
X000900Y003650D01*
X002400Y002850D01*
X006174Y002850D01*
X006474Y003550D01*
X007550Y004809D01*
X008550Y004809D02*
X008550Y003550D01*
X007350Y002450D01*
X005726Y003550D02*
X005726Y004750D01*
X003900Y003856D02*
X003906Y003550D01*
X004694Y003550D02*
X005726Y003550D01*
X016100Y007724D02*
X016100Y009550D01*
X017100Y009550D02*
X017100Y007724D01*
X011300Y009500D02*
X011256Y009750D01*
X016400Y004950D02*
X016400Y003850D01*
D20*
X011050Y006250D03*
X010550Y006750D03*
X009550Y006450D03*
X010050Y005850D03*
X007600Y007150D03*
X006500Y007250D03*
X011550Y007650D03*
M02*
