G75*
%MOIN*%
%OFA0B0*%
%FSLAX24Y24*%
%IPPOS*%
%LPD*%
%AMOC8*
5,1,8,0,0,1.08239X$1,22.5*
%
%ADD10C,0.0040*%
%ADD11C,0.0100*%
%ADD12C,0.0030*%
D10*
X003273Y002370D02*
X003120Y002523D01*
X003273Y002677D01*
X003580Y002677D01*
X003350Y002830D02*
X003427Y002907D01*
X003427Y003137D01*
X003580Y003137D02*
X003120Y003137D01*
X003120Y002907D01*
X003197Y002830D01*
X003350Y002830D01*
X003273Y002370D02*
X003580Y002370D01*
X004520Y002370D02*
X004980Y002370D01*
X004750Y002370D02*
X004750Y002677D01*
X004597Y002830D02*
X004673Y002907D01*
X004673Y003137D01*
X004750Y003137D02*
X004520Y003137D01*
X004520Y002907D01*
X004597Y002830D01*
X004520Y002677D02*
X004980Y002677D01*
X004827Y002907D02*
X004827Y003061D01*
X004750Y003137D01*
X004520Y003291D02*
X004520Y003444D01*
X004520Y003368D02*
X004980Y003368D01*
X004980Y003291D01*
X004827Y003598D02*
X004827Y003751D01*
X004904Y003674D02*
X004597Y003674D01*
X004520Y003751D01*
X003580Y003598D02*
X003120Y003598D01*
X003120Y003368D01*
X003197Y003291D01*
X003350Y003291D01*
X003427Y003368D01*
X003427Y003598D01*
X002780Y003447D02*
X002703Y003370D01*
X002627Y003370D01*
X002550Y003447D01*
X002550Y003830D01*
X002627Y003830D02*
X002473Y003830D01*
X002320Y003754D02*
X002243Y003830D01*
X002089Y003830D01*
X002013Y003754D01*
X002013Y003677D01*
X002320Y003370D01*
X002013Y003370D01*
X005920Y003444D02*
X005920Y003137D01*
X005920Y002984D02*
X006073Y002830D01*
X006073Y002907D02*
X006073Y002677D01*
X005920Y002677D02*
X006380Y002677D01*
X006380Y002907D01*
X006304Y002984D01*
X006150Y002984D01*
X006073Y002907D01*
X006227Y003137D02*
X006380Y003291D01*
X005920Y003291D01*
X006150Y003598D02*
X006150Y003905D01*
X005920Y003828D02*
X006380Y003828D01*
X006150Y003598D01*
X007520Y003444D02*
X007750Y003444D01*
X007827Y003368D01*
X007827Y003137D01*
X007520Y003137D01*
X007520Y002984D02*
X007520Y002830D01*
X007520Y002907D02*
X007827Y002907D01*
X007827Y002830D01*
X007904Y002677D02*
X007597Y002677D01*
X007520Y002600D01*
X007520Y002370D01*
X007980Y002370D01*
X007980Y002600D01*
X007904Y002677D01*
X007980Y002907D02*
X008057Y002907D01*
X009220Y002907D02*
X009297Y002830D01*
X009220Y002907D02*
X009220Y003061D01*
X009297Y003137D01*
X009373Y003137D01*
X009450Y003061D01*
X009450Y002984D01*
X009450Y003061D02*
X009527Y003137D01*
X009604Y003137D01*
X009680Y003061D01*
X009680Y002907D01*
X009604Y002830D01*
X009604Y002677D02*
X009297Y002677D01*
X009220Y002600D01*
X009220Y002370D01*
X009680Y002370D01*
X009680Y002600D01*
X009604Y002677D01*
X010720Y002600D02*
X010720Y002370D01*
X011180Y002370D01*
X011180Y002600D01*
X011104Y002677D01*
X010797Y002677D01*
X010720Y002600D01*
X010720Y002830D02*
X011027Y003137D01*
X011104Y003137D01*
X011180Y003061D01*
X011180Y002907D01*
X011104Y002830D01*
X010720Y002830D02*
X010720Y003137D01*
X011558Y003520D02*
X011865Y003520D01*
X012018Y003520D02*
X012095Y003520D01*
X012095Y003597D01*
X012018Y003597D01*
X012018Y003520D01*
X012248Y003597D02*
X012325Y003520D01*
X012479Y003520D01*
X012555Y003597D01*
X012555Y003904D01*
X012479Y003980D01*
X012325Y003980D01*
X012248Y003904D01*
X011865Y003827D02*
X011711Y003980D01*
X011711Y003520D01*
X012220Y003137D02*
X012220Y002830D01*
X012297Y002677D02*
X012604Y002677D01*
X012680Y002600D01*
X012680Y002370D01*
X012220Y002370D01*
X012220Y002600D01*
X012297Y002677D01*
X012527Y002830D02*
X012680Y002984D01*
X012220Y002984D01*
X013323Y003520D02*
X013169Y003827D01*
X013476Y003827D02*
X013323Y003520D01*
X013630Y003673D02*
X013936Y003673D01*
X013936Y003597D02*
X013936Y003750D01*
X013860Y003827D01*
X013706Y003827D01*
X013630Y003750D01*
X013630Y003673D01*
X013706Y003520D02*
X013860Y003520D01*
X013936Y003597D01*
X014090Y003520D02*
X014243Y003673D01*
X014167Y003673D02*
X014397Y003673D01*
X014397Y003520D02*
X014397Y003980D01*
X014167Y003980D01*
X014090Y003904D01*
X014090Y003750D01*
X014167Y003673D01*
X014820Y003598D02*
X014973Y003444D01*
X014973Y003521D02*
X014973Y003291D01*
X014820Y003291D02*
X015280Y003291D01*
X015280Y003521D01*
X015204Y003598D01*
X015050Y003598D01*
X014973Y003521D01*
X015011Y003520D02*
X015241Y003520D01*
X015318Y003597D01*
X015318Y003750D01*
X015241Y003827D01*
X015011Y003827D01*
X015360Y003731D02*
X015360Y002350D01*
X015280Y002447D02*
X015204Y002370D01*
X015127Y002370D01*
X015050Y002447D01*
X015050Y002600D01*
X014973Y002677D01*
X014897Y002677D01*
X014820Y002600D01*
X014820Y002447D01*
X014897Y002370D01*
X015280Y002447D02*
X015280Y002600D01*
X015204Y002677D01*
X015280Y002830D02*
X015280Y003137D01*
X015280Y002984D02*
X014820Y002984D01*
X014180Y002907D02*
X014180Y003061D01*
X014104Y003137D01*
X013797Y002830D01*
X013720Y002907D01*
X013720Y003061D01*
X013797Y003137D01*
X014104Y003137D01*
X014180Y002907D02*
X014104Y002830D01*
X013797Y002830D01*
X013797Y002677D02*
X014104Y002677D01*
X014180Y002600D01*
X014180Y002370D01*
X013720Y002370D01*
X013720Y002600D01*
X013797Y002677D01*
X015011Y003520D02*
X015011Y003980D01*
X015471Y003750D02*
X015548Y003827D01*
X015701Y003827D01*
X015778Y003750D01*
X015778Y003597D01*
X015701Y003520D01*
X015548Y003520D01*
X015471Y003597D01*
X015471Y003750D01*
X015932Y003980D02*
X015932Y003520D01*
X016238Y003520D02*
X016238Y003980D01*
X016085Y003827D01*
X015932Y003980D01*
X016469Y003980D02*
X016469Y004057D01*
X016776Y003904D02*
X016776Y003597D01*
X016699Y003520D01*
X016545Y003520D02*
X016392Y003520D01*
X016469Y003520D02*
X016469Y003827D01*
X016545Y003827D01*
X016699Y003827D02*
X016852Y003827D01*
X017082Y003980D02*
X017082Y003520D01*
X017006Y003520D02*
X017159Y003520D01*
X017313Y003520D02*
X017313Y003827D01*
X017159Y003980D02*
X017082Y003980D01*
X017620Y003827D02*
X017620Y003597D01*
X017543Y003520D01*
X017313Y003520D01*
X017773Y003520D02*
X017773Y003980D01*
X017927Y003827D01*
X018080Y003980D01*
X018080Y003520D01*
X018127Y003598D02*
X018127Y003368D01*
X018050Y003291D01*
X017897Y003291D01*
X017820Y003368D01*
X017820Y003598D01*
X018280Y003598D01*
X018050Y003137D02*
X017820Y003137D01*
X018050Y003137D02*
X018127Y003061D01*
X018127Y002830D01*
X017820Y002830D01*
X017897Y002677D02*
X018050Y002677D01*
X018050Y002523D01*
X017897Y002370D02*
X017820Y002447D01*
X017820Y002600D01*
X017897Y002677D01*
X018204Y002677D02*
X018280Y002600D01*
X018280Y002447D01*
X018204Y002370D01*
X017897Y002370D01*
X016860Y002350D02*
X016860Y003271D01*
X016704Y003137D02*
X016397Y003137D01*
X016320Y003061D01*
X016320Y002830D01*
X016780Y002830D01*
X016780Y003061D01*
X016704Y003137D01*
X016704Y002677D02*
X016780Y002600D01*
X016780Y002447D01*
X016704Y002370D01*
X016397Y002370D01*
X016320Y002447D01*
X016320Y002600D01*
X016397Y002677D01*
X015627Y004770D02*
X015627Y005230D01*
X015780Y005230D02*
X015473Y005230D01*
X015320Y005230D02*
X015089Y005230D01*
X015013Y005154D01*
X015013Y005000D01*
X015089Y004923D01*
X015320Y004923D01*
X015320Y004770D02*
X015320Y005230D01*
X014859Y005077D02*
X014706Y005230D01*
X014706Y004770D01*
X014859Y004770D02*
X014552Y004770D01*
X006380Y002523D02*
X006380Y002370D01*
X006380Y002447D02*
X005920Y002447D01*
X005920Y002523D02*
X005920Y002370D01*
X002380Y005447D02*
X002303Y005370D01*
X002227Y005370D01*
X002150Y005447D01*
X002150Y005830D01*
X002227Y005830D02*
X002073Y005830D01*
X001920Y005677D02*
X001766Y005830D01*
X001766Y005370D01*
X001613Y005370D02*
X001920Y005370D01*
X013713Y010047D02*
X013789Y009970D01*
X013943Y009970D01*
X014020Y010047D01*
X014250Y010047D02*
X014250Y010430D01*
X014327Y010430D02*
X014173Y010430D01*
X014020Y010354D02*
X013943Y010430D01*
X013789Y010430D01*
X013713Y010354D01*
X013713Y010277D01*
X013789Y010200D01*
X013713Y010123D01*
X013713Y010047D01*
X013789Y010200D02*
X013866Y010200D01*
X014250Y010047D02*
X014327Y009970D01*
X014403Y009970D01*
X014480Y010047D01*
D11*
X001400Y005150D02*
X000900Y005950D01*
X000400Y005150D01*
X001400Y005150D01*
D12*
X014815Y007727D02*
X014815Y007850D01*
X014877Y007912D01*
X015000Y007912D01*
X015000Y007788D01*
X014877Y007665D02*
X014815Y007727D01*
X014877Y007665D02*
X015124Y007665D01*
X015185Y007727D01*
X015185Y007850D01*
X015124Y007912D01*
X015062Y008033D02*
X014815Y008033D01*
X015062Y008033D02*
X015062Y008218D01*
X015000Y008280D01*
X014815Y008280D01*
X014877Y008402D02*
X015000Y008402D01*
X015062Y008463D01*
X015062Y008649D01*
X015185Y008649D02*
X014815Y008649D01*
X014815Y008463D01*
X014877Y008402D01*
X015770Y008365D02*
X016017Y008612D01*
X016138Y008735D02*
X016385Y008735D01*
X016262Y008735D02*
X016262Y008365D01*
X016017Y008365D02*
X015770Y008612D01*
X016670Y008612D02*
X016917Y008365D01*
X017038Y008365D02*
X017162Y008488D01*
X017100Y008488D02*
X017285Y008488D01*
X017285Y008365D02*
X017285Y008735D01*
X017100Y008735D01*
X017038Y008674D01*
X017038Y008550D01*
X017100Y008488D01*
X016917Y008612D02*
X016670Y008365D01*
X017915Y008370D02*
X018285Y008370D01*
X018285Y008555D01*
X018224Y008617D01*
X018100Y008617D01*
X018038Y008555D01*
X018038Y008370D01*
X018038Y008493D02*
X017915Y008617D01*
X018345Y008723D02*
X018345Y007250D01*
X018285Y007265D02*
X018162Y007388D01*
X018285Y007512D01*
X017915Y007512D01*
X017977Y007633D02*
X017915Y007695D01*
X017915Y007818D01*
X017977Y007880D01*
X018224Y007880D02*
X018285Y007818D01*
X018285Y007695D01*
X018224Y007633D01*
X017977Y007633D01*
X017915Y007265D02*
X018285Y007265D01*
X018285Y008002D02*
X017915Y008002D01*
X017915Y008249D01*
M02*
